<?xml version="1.0" encoding="utf-8"?>
<svg version="1.1" xmlns:xlink="http://www.w3.org/1999/xlink" width="34px" height="34px" xmlns="http://www.w3.org/2000/svg">
  <g transform="matrix(1 0 0 1 -16 -10 )">
    <path d="M 33 10  C 42.52 10  50 17.48  50 27  C 50 36.52  42.52 44  33 44  C 23.48 44  16 36.52  16 27  C 16 17.48  23.48 10  33 10  Z " fill-rule="nonzero" fill="#ffffff" stroke="none" />
    <path d="M 33 10.5  C 42.24 10.5  49.5 17.76  49.5 27  C 49.5 36.24  42.24 43.5  33 43.5  C 23.76 43.5  16.5 36.24  16.5 27  C 16.5 17.76  23.76 10.5  33 10.5  Z " stroke-width="1" stroke="#797979" fill="none" />
  </g>
</svg>